#!OML:ASF I:\salsa\salsa 7_09\Patient 1\Session 1\dancerfemale.ASF
:FULLY-SPECIFIED
:DEGREES
3101
root 7.99581 16.0469 -6.25085 -3042.34 -97.8828 -195.863
lowerback 4.12762 4.5363 -3.9872
upperback -2.83616 5.77541 -0.347053
thorax -5.62009 2.9948 1.32721
lowerneck 7.89979 -10.6746 -11.4933
upperneck 1.61699 -15.3617 11.6931
head 1.00608 -7.9235 5.31068
rclavicle 7.00716e-015 2.38542e-015
rhumerus -5.30202 20.6085 -101.537
rradius 98.4312
rwrist 4.01274
rhand -6.83366 767.943
rfingers 7.12502
rthumb 19.0308 378.854
lclavicle 7.00716e-015 2.38542e-015
lhumerus -64.866 28.3739 19.4102
lradius 79.4789
lwrist -25.6403
lhand -15.7274 -304.857
lfingers 7.12502
lthumb 10.4631 -2435.14
rfemur -18.4779 -14.4015 26.6094
rtibia 25.7683
rfoot -31.8733 -38.8212
rtoes 21.8501
lfemur -6.6122 -1.27229 -13.9596
ltibia 47.1692
lfoot -15.1913 -0.27322
ltoes -65.6364
3102
root 8.22173 16.0604 -6.21074 -3051.71 -98.2612 -186.702
lowerback 4.06496 4.60043 -5.43904
upperback -2.66194 5.77288 -0.352487
thorax -5.55523 3.04255 2.12964
lowerneck 7.83624 -10.5528 -11.8026
upperneck 2.06479 -15.2409 11.418
head 1.13617 -7.85941 5.25987
rclavicle -1.02436e-013 -1.59028e-014
rhumerus -5.14241 20.9233 -101.741
rradius 94.5516
rwrist 5.00598
rhand -6.45299 768.315
rfingers 7.12502
rthumb 19.3968 379.262
lclavicle -1.02436e-013 -1.59028e-014
lhumerus -63.5544 28.6005 20.629
lradius 81.5957
lwrist -25.4233
lhand -17.5311 -305.209
lfingers 7.12502
lthumb 8.72289 -2435.41
rfemur -19.1663 -14.8811 25.1143
rtibia 25.9357
rfoot -31.3859 -39.0242
rtoes 22.7105
lfemur -4.64356 -2.31345 -15.9974
ltibia 43.0349
lfoot -18.615 2.52065
ltoes -64.0573
3103
root 8.465 16.0804 -6.16091 -3059.69 -98.7496 -178.86
lowerback 4.22369 4.58701 -6.28866
upperback -2.53544 5.67376 -0.650914
thorax -5.56271 3.01274 2.28951
lowerneck 7.72206 -10.2785 -12.208
upperneck 2.37779 -14.9281 11.7095
head 1.26068 -7.70745 5.40077
rclavicle -7.5973e-014 9.54166e-015
rhumerus -5.08772 21.1492 -102.541
rradius 90.303
rwrist 5.92509
rhand -6.21503 768.588
rfingers 7.12502
rthumb 19.6256 379.558
lclavicle -7.5973e-014 9.54166e-015
lhumerus -62.21 28.8981 21.7619
lradius 83.8064
lwrist -25.276
lhand -19.1457 -305.118
lfingers 7.12502
lthumb 7.16452 -2435.26
rfemur -19.9117 -15.2278 23.6583
rtibia 25.9988
rfoot -30.4287 -39.2348
rtoes 22.3492
lfemur -3.0427 -3.37537 -18.0563
ltibia 39.1915
lfoot -20.4413 4.96045
ltoes -62.741
3104
root 8.72883 16.1068 -6.1024 -3065.55 -99.3405 -172.997
lowerback 4.44208 4.53911 -6.87466
upperback -2.39294 5.54665 -0.837431
thorax -5.56677 2.96163 2.4203
lowerneck 7.77594 -10.1501 -12.2172
upperneck 2.10914 -14.7238 11.4277
head 1.12835 -7.60079 5.33952
rclavicle -2.49599e-014 2.62396e-014
rhumerus -5.68788 21.1383 -103.512
rradius 86.3596
rwrist 6.49628
rhand -5.58161 769.121
rfingers 7.12502
rthumb 20.2345 380.155
lclavicle -2.49599e-014 2.62396e-014
lhumerus -61.0089 29.3533 23.3826
lradius 86.1886
lwrist -25.0682
lhand -20.6752 -304.461
lfingers 7.12502
lthumb 5.68791 -2434.56
rfemur -20.7568 -15.1287 22.3732
rtibia 25.9595
rfoot -30.7655 -39.4526
rtoes 23.7817
lfemur -2.15398 -3.88962 -19.794
ltibia 35.9659
lfoot -20.8319 6.49383
ltoes -61.5422
3105
root 9.01329 16.1259 -6.04213 -3070.21 -99.8721 -168.264
lowerback 4.85903 4.53436 -7.28762
upperback -2.28366 5.46893 -1.0051
thorax -5.70684 2.93259 2.45264
lowerneck 7.71808 -10.0019 -12.3387
upperneck 1.77293 -14.4893 11.2447
head 1.00602 -7.47626 5.31946
rclavicle -2.45872e-014 -3.97569e-016
rhumerus -6.37315 20.6753 -104.394
rradius 82.466
rwrist 6.87988
rhand -4.09086 769.618
rfingers 7.12502
rthumb 21.6667 380.81
lclavicle -2.45872e-014 -3.97569e-016
lhumerus -59.7107 29.9454 25.4546
lradius 88.6068
lwrist -25.0315
lhand -22.0825 -304.363
lfingers 7.12502
lthumb 4.32912 -2434.43
rfemur -21.8112 -14.2468 21.1566
rtibia 26.1442
rfoot -30.9612 -39.9292
rtoes 24.9258
lfemur -2.05459 -3.23858 -21.1178
ltibia 33.644
lfoot -21.2438 6.88885
ltoes -58.2158
3106
root 9.3125 16.1264 -5.98617 -3075.14 -100.266 -163.326
lowerback 5.52949 4.13917 -7.67884
upperback -2.11891 4.85863 -0.990223
thorax -5.88879 2.64521 2.71529
lowerneck 7.19837 -9.3282 -13.5489
upperneck 1.70945 -13.606 11.3979
head 1.05636 -7.02454 5.54861
rclavicle -2.58839e-014 -5.56597e-015
rhumerus -7.8554 20.9723 -105.588
rradius 78.8068
rwrist 8.56738
rhand -4.2569 770.692
rfingers 7.12502
rthumb 21.5072 381.866
lclavicle -2.58839e-014 -5.56597e-015
lhumerus -59.661 31.2328 26.9255
lradius 90.9413
lwrist -24.8684
lhand -23.15 -304.725
lfingers 7.12502
lthumb 3.29827 -2434.77
rfemur -23.064 -12.6473 19.7724
rtibia 26.8313
rfoot -31.4118 -40.1513
rtoes 24.3331
lfemur -2.41939 -1.95005 -22.3623
ltibia 32.2022
lfoot -21.2458 6.47993
ltoes -57.5466
3107
root 9.61647 16.0965 -5.93797 -3080.54 -100.606 -158.006
lowerback 6.35818 4.32703 -8.14957
upperback -1.9894 4.97082 -1.30602
thorax -6.25302 2.71177 2.57341
lowerneck 7.26674 -9.14906 -13.7581
upperneck 1.27815 -13.3577 11.5485
head 0.911243 -6.90005 5.65164
rclavicle -3.43583e-014 -6.75868e-015
rhumerus -9.27061 19.5677 -106.013
rradius 75.6448
rwrist 10.2943
rhand -4.91936 771.843
rfingers 7.12502
rthumb 20.8709 382.946
lclavicle -3.43583e-014 -6.75868e-015
lhumerus -57.4383 31.6414 30.161
lradius 92.9619
lwrist -24.5067
lhand -24.0653 -304.622
lfingers 7.12502
lthumb 2.41433 -2434.66
rfemur -24.7897 -12.4363 18.5406
rtibia 28.2387
rfoot -30.7365 -38.8408
rtoes 18.8143
lfemur -2.96511 -0.99081 -23.7324
ltibia 31.3975
lfoot -21.57 6.00644
ltoes -56.7275
3108
root 9.9139 16.0516 -5.8968 -3085.63 -100.961 -153.043
lowerback 7.17522 4.67248 -8.74479
upperback -1.9014 5.26921 -1.58709
thorax -6.69319 2.87753 2.50033
lowerneck 7.56821 -9.08874 -13.7375
upperneck 0.863791 -13.2791 11.4911
head 0.726124 -6.86364 5.66426
rclavicle -3.58589e-015 -1.55052e-014
rhumerus -10.9757 17.1664 -105.892
rradius 73.7673
rwrist 11.0235
rhand -2.25225 771.262
rfingers 7.12502
rthumb 23.4314 382.669
lclavicle -3.58589e-015 -1.55052e-014
lhumerus -54.7861 31.7332 33.9929
lradius 94.7588
lwrist -24.2345
lhand -24.7927 -304.599
lfingers 7.12502
lthumb 1.71176 -2434.63
rfemur -26.9056 -12.9241 17.5726
rtibia 30.3737
rfoot -27.9601 -36.822
rtoes 8.82742
lfemur -3.63447 -0.378793 -25.0821
ltibia 30.9839
lfoot -21.9151 5.51516
ltoes -55.7458
3109
root 10.203 16.0066 -5.8576 -3090.23 -101.435 -148.539
lowerback 7.92852 4.8934 -9.35714
upperback -1.82718 5.39717 -1.80179
thorax -7.10269 2.9622 2.52897
lowerneck 7.52035 -9.01442 -13.5176
upperneck 0.853301 -13.1414 10.9266
head 0.661403 -6.78285 5.46525
rclavicle -1.08501e-013 2.64384e-014
rhumerus -13.154 15.6398 -105.106
rradius 72.7373
rwrist 11.2786
rhand -2.50536 771.744
rfingers 7.12502
rthumb 23.1886 383.12
lclavicle -1.08501e-013 2.64384e-014
lhumerus -52.2552 31.8319 37.8467
lradius 96.1799
lwrist -24.1666
lhand -25.29 -304.927
lfingers 7.12502
lthumb 1.23149 -2434.95
rfemur -29.1443 -13.3585 16.7054
rtibia 33.0842
rfoot -25.1406 -34.1701
rtoes 2.8959
lfemur -4.5201 0.136767 -26.4368
ltibia 30.9401
lfoot -22.3793 4.98037
ltoes -54.8139
3110
root 10.4836 15.952 -5.81996 -3093.71 -102.036 -145.278
lowerback 8.69234 5.06105 -9.73099
upperback -1.67567 5.46799 -2.06558
thorax -7.39873 3.00238 2.38578
lowerneck 7.24962 -9.01355 -13.0133
upperneck 1.05464 -13.0664 10.2423
head 0.676951 -6.72821 5.168
rclavicle -3.22062e-014 2.76311e-014
rhumerus -15.3753 13.8557 -103.92
rradius 71.9504
rwrist 12.0558
rhand -2.83402 772.622
rfingers 7.12502
rthumb 22.8733 383.958
lclavicle -3.22062e-014 2.76311e-014
lhumerus -49.4036 31.457 41.9272
lradius 97.222
lwrist -24.4583
lhand -25.7599 -304.999
lfingers 7.12502
lthumb 0.777678 -2435.02
rfemur -31.1682 -13.7246 15.9668
rtibia 36.1934
rfoot -22.972 -30.9958
rtoes 4.1132
lfemur -5.51693 0.668302 -27.6783
ltibia 31.322
lfoot -22.9151 4.44452
ltoes -54.6969
3111
root 10.7529 15.8857 -5.78517 -3095.1 -102.554 -144.454
lowerback 9.56216 5.1169 -9.58594
upperback -1.35899 5.45271 -2.23303
thorax -7.51946 2.97336 2.07895
lowerneck 6.89746 -8.96357 -12.7738
upperneck 1.27303 -12.9477 10.0326
head 0.754453 -6.65849 5.04838
rclavicle 2.91313e-014 1.64991e-014
rhumerus -17.5913 11.9037 -102.053
rradius 72.4771
rwrist 11.1443
rhand -3.57393 773.894
rfingers 7.12502
rthumb 22.1631 385.145
lclavicle 2.91313e-014 1.64991e-014
lhumerus -46.7123 30.648 45.7381
lradius 98.0049
lwrist -24.9685
lhand -26.2177 -304.915
lfingers 7.12502
lthumb 0.335488 -2434.94
rfemur -32.2129 -13.6816 15.5091
rtibia 39.7157
rfoot -21.803 -30.0888
rtoes 4.73007
lfemur -6.42799 1.14397 -28.4523
ltibia 32.2053
lfoot -23.3111 3.98241
ltoes -55.0706
3112
root 11.0111 15.8215 -5.75224 -3094.96 -102.971 -145.454
lowerback 10.5667 5.0609 -9.04181
upperback -0.957826 5.34392 -2.2677
thorax -7.58609 2.8844 1.70859
lowerneck 6.65897 -8.82855 -12.7693
upperneck 1.35143 -12.7424 10.0721
head 0.794075 -6.55094 5.0514
rclavicle 1.3887e-014 -3.27995e-014
rhumerus -20.0241 10.5177 -99.6298
rradius 73.5898
rwrist 10.2074
rhand -3.58376 774.536
rfingers 7.12502
rthumb 22.1536 385.785
lclavicle 1.3887e-014 -3.27995e-014
lhumerus -44.5305 29.394 48.9596
lradius 98.5107
lwrist -25.4928
lhand -26.5835 -304.983
lfingers 7.12502
lthumb -0.0178401 -2435
rfemur -32.4951 -13.2996 15.2966
rtibia 43.7506
rfoot -21.4981 -29.43
rtoes -2.35165
lfemur -7.25005 1.30782 -28.8435
ltibia 33.536
lfoot -23.5096 3.75759
ltoes -55.1229
3113
root 11.261 15.7604 -5.72453 -3094.49 -103.483 -146.971
lowerback 11.7855 4.88789 -8.45014
upperback -0.552256 5.07396 -2.25567
thorax -7.75525 2.71897 1.37867
lowerneck 6.37805 -8.63466 -12.7052
upperneck 1.49756 -12.4487 9.89879
head 0.833214 -6.39623 4.98138
rclavicle 5.39887e-014 -3.12092e-014
rhumerus -22.5473 9.14469 -96.81
rradius 75.3031
rwrist 9.51698
rhand -3.81462 775.987
rfingers 7.12502
rthumb 21.932 387.21
lclavicle 5.39887e-014 -3.12092e-014
lhumerus -42.9771 27.77 51.4664
lradius 98.751
lwrist -25.8839
lhand -26.6957 -305.976
lfingers 7.12502
lthumb -0.126207 -2436
rfemur -32.3023 -12.7817 15.0465
rtibia 48.2774
rfoot -20.5415 -27.2525
rtoes -4.92637
lfemur -7.97807 0.905827 -29.2093
ltibia 35.1826
lfoot -23.7635 3.88596
ltoes -54.1446
3114
root 11.5027 15.6999 -5.70863 -3094.68 -104.296 -147.816
lowerback 13.0468 4.58783 -8.20664
upperback -0.175978 4.57646 -2.32546
thorax -7.98712 2.45538 1.202
lowerneck 5.81313 -8.42176 -12.5219
upperneck 1.91398 -12.0992 9.48768
head 0.970442 -6.20746 4.80276
rclavicle 1.12767e-013 -5.53615e-014
rhumerus -25.0158 7.44833 -93.891
rradius 77.5826
rwrist 8.6952
rhand -3.61439 778.217
rfingers 7.12502
rthumb 22.1242 389.463
lclavicle 1.12767e-013 -5.53615e-014
lhumerus -41.9984 26.1172 53.1631
lradius 98.8375
lwrist -25.8963
lhand -26.3015 -308.075
lfingers 7.12502
lthumb 0.254505 -2438.1
rfemur -31.8918 -12.3442 14.4633
rtibia 53.2203
rfoot -19.142 -22.9378
rtoes -2.45821
lfemur -8.7395 0.061738 -29.8785
ltibia 36.9884
lfoot -24.0975 4.2515
ltoes -52.2972
3115
root 11.7273 15.6308 -5.70976 -3095.27 -105.3 -147.871
lowerback 13.8944 4.27432 -8.47793
upperback 0.0271826 4.00914 -2.4785
thorax -8.2033 2.18128 1.26559
lowerneck 5.43914 -8.17167 -12.3371
upperneck 2.22749 -11.7213 9.2362
head 1.05519 -6.01069 4.68646
rclavicle 4.7348e-014 -4.00551e-014
rhumerus -27.2244 6.31613 -90.5203
rradius 79.5961
rwrist 6.97423
rhand -3.71238 779.403
rfingers 7.12502
rthumb 22.0301 390.638
lclavicle 4.7348e-014 -4.00551e-014
lhumerus -41.4998 24.3854 54.2688
lradius 98.8766
lwrist -25.6303
lhand -25.951 -308.285
lfingers 7.12502
lthumb 0.593069 -2438.31
rfemur -31.7203 -12.062 13.8359
rtibia 58.2745
rfoot -17.8934 -20.1437
rtoes -1.60183
lfemur -9.89673 -0.510703 -30.7242
ltibia 38.8441
lfoot -24.3124 4.40449
ltoes -51.0502
